# xmcd CD database file
#
# Track frame offsets:
#	150
#	27975
#	45075
#	50300
#	69225
#	91752
#	113967
#	138975
#	170347
#	184500
#	207167
#	221815
#	245100
#
# Disc length: 3430 seconds
#
# Revision: 0
# Processed by: cddbd v1.4PL0 Copyright (c) Steve Scherf et al.
# Submitted via: CDex 1.50
#
DISCID=ad0d640d
DTITLE=Rick Kellis - Manhattan Suite
DYEAR=1988
DGENRE=Jazz
TTITLE0=Touchdown (Overture)
TTITLE1=Taxi-Do Junction
TTITLE2=City Talk
TTITLE3=Street Walking
TTITLE4=Escalde
TTITLE5=Party For Two (Featuring Billy Thompson)
TTITLE6=Melody Demetra
TTITLE7=Nightlife
TTITLE8=Latin Manhattan
TTITLE9=Blue Apple
TTITLE10=After All My Love
TTITLE11=Party For Two (Sax Time)
TTITLE12=Until The Ta-Do (Reprise)
EXTD=YEAR: 1988
EXTT0=
EXTT1=
EXTT2=
EXTT3=
EXTT4=
EXTT5=
EXTT6=
EXTT7=
EXTT8=
EXTT9=
EXTT10=
EXTT11=
EXTT12=
PLAYORDER=
